<?xml version="1.0" encoding="UTF-8"?>
<svg id="Layer_1" xmlns="http://www.w3.org/2000/svg" version="1.1" viewBox="0 0 792 612">
  <!-- Generator: Adobe Illustrator 29.5.0, SVG Export Plug-In . SVG Version: 2.1.0 Build 137)  -->
  <defs>
    <style>
      .st0 {
        fill: #231f20;
      }

      .st1 {
        fill: #8c8788;
      }
    </style>
  </defs>
  <path class="st0" d="M121.72,442.53h-40.56c-16.88-18.66-29.56-39.46-38.05-62.42s-12.74-48.01-12.74-75.15,4.25-51.04,12.74-74.21c8.49-23.16,21.17-44.81,38.05-64.93h40.25c-15.83,21.07-27.73,43.19-35.69,66.35-7.97,23.17-11.95,47.43-11.95,72.8s4.01,49.37,12.03,72.32,19.99,44.7,35.93,65.25Z"/>
  <path class="st1" d="M238.85,442.53h-40.56c-16.88-18.66-29.56-39.46-38.05-62.42s-12.74-48.01-12.74-75.15,4.25-51.04,12.74-74.21c8.49-23.16,21.17-44.81,38.05-64.93h40.25c-15.83,21.07-27.73,43.19-35.69,66.35-7.97,23.17-11.95,47.43-11.95,72.8s4.01,49.37,12.03,72.32,19.99,44.7,35.93,65.25Z"/>
  <path class="st0" d="M355.99,442.53h-40.56c-16.88-18.66-29.56-39.46-38.05-62.42s-12.74-48.01-12.74-75.15,4.25-51.04,12.74-74.21c8.49-23.16,21.17-44.81,38.05-64.93h40.25c-15.83,21.07-27.73,43.19-35.69,66.35-7.97,23.17-11.95,47.43-11.95,72.8s4.01,49.37,12.03,72.32,19.99,44.7,35.93,65.25Z"/>
  <path class="st0" d="M476.74,442.53h-40.25c16.04-20.44,28.06-42.14,36.08-65.09,8.02-22.96,12.03-47.11,12.03-72.48s-4.01-49.47-12.03-72.64c-8.02-23.16-20.05-45.33-36.08-66.51h40.56c16.98,20.12,29.72,41.8,38.21,65.01,8.49,23.22,12.74,47.93,12.74,74.13s-4.27,51.89-12.81,74.84c-8.54,22.96-21.36,43.87-38.44,62.73Z"/>
  <path class="st1" d="M593.71,442.53h-40.25c16.04-20.44,28.06-42.14,36.08-65.09,8.02-22.96,12.03-47.11,12.03-72.48s-4.01-49.47-12.03-72.64c-8.02-23.16-20.05-45.33-36.08-66.51h40.56c16.98,20.12,29.72,41.8,38.21,65.01,8.49,23.22,12.74,47.93,12.74,74.13s-4.27,51.89-12.81,74.84c-8.54,22.96-21.36,43.87-38.44,62.73Z"/>
  <path class="st0" d="M710.69,442.53h-40.25c16.04-20.44,28.06-42.14,36.08-65.09,8.02-22.96,12.03-47.11,12.03-72.48s-4.01-49.47-12.03-72.64c-8.02-23.16-20.05-45.33-36.08-66.51h40.56c16.98,20.12,29.72,41.8,38.21,65.01,8.49,23.22,12.74,47.93,12.74,74.13s-4.27,51.89-12.81,74.84c-8.54,22.96-21.36,43.87-38.44,62.73Z"/>
</svg>